<?xml version="1.0" encoding="utf-8"?>
<!-- Generator: Adobe Illustrator 26.1.0, SVG Export Plug-In . SVG Version: 6.00 Build 0)  -->
<svg version="1.1" id="Layer_1" xmlns="http://www.w3.org/2000/svg" xmlns:xlink="http://www.w3.org/1999/xlink" x="0px" y="0px"
	 viewBox="0 0 200 200" style="enable-background:new 0 0 200 200;" xml:space="preserve">
<style type="text/css">
	.st0{fill:#FF5400;}
</style>
<g>
	<path class="st0" d="M200,52.61c-1,0.82-1.91,1.79-3.01,2.44c-3.84,2.26-7.77,4.36-11.61,6.64c-0.89,0.53-1.74,1.41-2.25,2.33
		c-2.32,4.21-4.51,8.5-6.77,12.75c-1.6,3-3.37,3.26-5.68,0.88c-1.47-1.52-2.91-3.09-4.42-4.57c-1.27-1.25-1.67-2.59-1.09-4.36
		c0.86-2.61,1.6-5.27,2.32-7.92c0.15-0.57,0.23-1.51-0.09-1.82c-3.76-3.8-7.61-7.51-11.59-11.4c-1.69,3.14-3.33,6.03-4.76,9.03
		c-0.25,0.53,0.18,1.64,0.61,2.25c5.02,7.16,8.8,14.95,11.04,23.49c5.55,21.14,2.93,41.17-8.17,59.83
		c-8.43,14.18-20.35,24.25-35.36,30.17c-12.48,4.92-25.43,6.36-38.55,3.56c-26.15-5.57-44.61-21.24-54.09-47.05
		c-8.37-22.79-6.02-45.1,6.56-65.84c11.4-18.78,28-29.98,49.03-33.65c17.66-3.08,34.26,0.51,49.54,10.34
		c1.16,0.74,2.3,1.51,3.7,2.42c1.07-3.64,2.15-7.11,3.08-10.63c0.12-0.44-0.39-1.19-0.79-1.61c-3.92-4.04-7.86-8.05-11.84-12.03
		c-0.44-0.44-1.1-0.67-1.69-0.92c-1.26-0.54-2.58-0.94-3.8-1.56c-1.42-0.72-1.9-2.07-1.46-3.59c0.44-1.51,1.53-2.31,3.11-2.18
		c0.58,0.05,1.15,0.17,1.6,0.25c0.99-1.86,1.72-3.84,2.94-5.42c4.35-5.63,11.36-5.89,16.16-0.71c3.11,3.36,6.23,6.71,9.2,10.2
		c1.19,1.4,2.24,1.55,3.87,1.02c9.61-3.11,19.28-6.05,28.88-9.17c2.23-0.72,3.84-0.36,5.38,1.44c1.68,1.96,3.57,3.74,5.36,5.61
		c2.34,2.45,2.1,4.44-0.79,6.12c-7.54,4.38-15.11,8.72-22.66,13.08c-0.68,0.39-1.34,0.81-2.26,1.36c0.82,0.91,1.55,1.72,2.28,2.52
		c2.68,2.94,5.39,5.86,8.03,8.84c0.75,0.85,1.4,1.13,2.52,0.72c2.45-0.89,4.98-1.55,7.45-2.38c1.73-0.58,3.15-0.34,4.4,1.13
		c1.84,2.17,3.77,4.26,5.66,6.39C200,51.26,200,51.94,200,52.61z M107.49,35.45c0.11,0.88,0.1,0.96,0.13,1.01
		c0.28,0.45,0.58,0.9,0.85,1.36c3.29,5.51,4.31,11.32,2.28,17.59c-1.8,5.57-4.86,10.35-8.88,14.33
		c-7.57,7.5-15.48,14.63-23.09,22.09c-2.43,2.38-4.56,5.18-6.41,8.07c-1.68,2.62-1.17,5.07,0.97,7.34c0.9,0.95,1.93,1.85,3.05,2.49
		c2.73,1.56,5.63,2.8,8.3,4.46c3.11,1.92,6.3,3.85,8.98,6.32c3.64,3.37,2.42,8.28-2.17,10.09c-0.91,0.36-1.83,0.7-2.78,0.94
		c-11.54,2.86-22.47,1.03-32.36-5.56c-5.71-3.81-10.82-8.59-16.2-12.94c-2.87-2.32-5.69-4.69-8.63-6.92
		c-0.8-0.6-1.92-0.75-3.01-1.15c1.35,44.78,43.06,73.66,79.87,63.76c0-2.83-0.22-5.67,0.04-8.46c0.76-7.87,4.96-13.99,10.09-19.37
		c5.02-5.27,10.58-9.99,15.65-15.22c5.26-5.43,9.08-11.74,9.75-19.73c0.32-3.84,0.93-7.82,3.87-10.53c2.65-2.44,5.63-4.51,8.62-6.52
		c1.26-0.85,1.7-1.53,1.18-3.03c-1.18-3.42-1.97-7.01-3.41-10.3c-1.85-4.26-4.18-8.3-6.49-12.81c-2.14,3.99-3.94,7.42-5.81,10.81
		c-1.43,2.61-3.31,2.88-5.34,0.84c-2.1-2.12-4.15-4.29-6.29-6.36c-1.36-1.32-1.65-2.75-1.1-4.56c1.41-4.62,2.69-9.29,4.11-13.91
		c0.31-1.02,0.18-1.62-0.71-2.15c-3.94-2.35-7.72-5.03-11.83-7C116.58,38.44,112.13,37.16,107.49,35.45z M89,125
		c0.12-0.29,0.24-0.58,0.36-0.88c-2.59-1.57-5.16-3.19-7.79-4.7c-3.41-1.95-7.03-3.56-10.26-5.78c-4.11-2.82-6.84-6.66-5.83-12.24
		c0.6-3.34,2.07-6.33,4.32-8.7c4.28-4.51,8.69-8.9,13.24-13.12c6.06-5.62,12.5-10.83,17.49-17.56c3.27-4.41,5.63-9.25,4.62-15.13
		c-0.81-4.75-3.46-8.36-6.72-11.57c-0.37-0.36-1.03-0.55-1.57-0.57c-12.24-0.58-23.82,2.07-34.51,8.26
		c-16.44,9.52-27.12,23.82-31.9,42.71c-1.06,4.19-1.5,8.54-2.25,12.96c4.11,0.38,7.14,2.17,9.87,4.53
		c4.3,3.71,8.53,7.51,12.81,11.24c5.17,4.5,10.75,8.28,17.25,10.4C75.09,127.11,82.05,127.18,89,125z M189.07,15.23
		c-2.29-3.45-2.49-3.52-6-2.42c-9.45,2.96-18.92,5.88-28.35,8.91c-2.07,0.67-3.56,0.31-5.03-1.36c-3.64-4.14-7.42-8.14-11.12-12.22
		c-1.13-1.25-2.41-2.03-4.13-1.77c-2.22,0.34-3.59,1.76-4.38,3.84c-0.75,1.96-0.06,3.58,1.31,4.93c3.68,3.63,7.28,7.35,11.12,10.78
		c2.36,2.1,2.86,4.14,1.89,7.24c-3.09,9.86-5.86,19.83-8.81,29.74c-0.35,1.18-0.26,1.99,0.68,2.81c0.67,0.58,1.12,1.42,1.82,2.34
		c0.68-1.18,1.05-1.81,1.39-2.44c4.28-7.94,8.56-15.89,12.85-23.82c1.43-2.65,3.21-3,5.33-0.95c5.15,4.96,10.23,9.99,15.38,14.95
		c1.26,1.21,1.55,2.58,1.07,4.21c-0.77,2.64-1.47,5.31-2.34,7.92c-0.47,1.4-0.23,2.31,1.19,3.01c1.85-3.51,3.77-6.94,5.48-10.49
		c0.83-1.73,1.94-2.89,3.59-3.75c3.44-1.8,6.79-3.8,10.23-5.75c-1.45-1.63-1.45-1.64-3.13-1.11c-2.49,0.78-4.98,1.53-7.46,2.36
		c-1.68,0.56-2.99,0.16-4.2-1.19c-4.77-5.35-9.6-10.65-14.39-15.98c-1.8-2.01-1.55-3.95,0.72-5.33c1.96-1.2,3.98-2.28,5.98-3.42
		C176.21,22.58,182.63,18.91,189.07,15.23z M114.43,167.16c33.72-11.35,48.78-46.64,44.42-72.81c-4.74,2.61-8.6,5.78-9.02,11.94
		c-0.5,7.28-3.03,13.86-7.79,19.2c-4.66,5.23-9.66,10.16-14.73,14.98c-3.81,3.63-7.38,7.42-10.09,11.99
		C114.59,156.9,113.61,161.76,114.43,167.16z"/>
	<path class="st0" d="M181.61,106.9c0.11-1.68,0.15-3.36,0.34-5.03c0.21-1.87,1.46-2.94,3.18-2.8c1.75,0.15,2.8,1.21,2.79,3
		c-0.03,3.16-0.15,6.32-0.41,9.47c-0.15,1.83-1.6,2.94-3.25,2.72c-1.72-0.22-2.65-1.31-2.7-3.12c-0.04-1.41-0.01-2.83-0.01-4.24
		C181.57,106.9,181.59,106.9,181.61,106.9z"/>
	<path class="st0" d="M76.29,198.36c-2.5-0.68-5.72-1.42-8.84-2.48c-1.49-0.51-2.09-2.01-1.56-3.65c0.51-1.6,1.68-2.44,3.3-2.1
		c2.92,0.6,5.81,1.32,8.71,2.02c1.71,0.42,2.49,1.64,2.37,3.4C80.16,197.21,78.81,198.31,76.29,198.36z"/>
	<path class="st0" d="M83.49,5.65c2.8-0.08,4.11,0.89,4.38,2.6c0.28,1.75-0.79,3.26-2.84,3.63c-2.74,0.5-5.5,0.89-8.27,1.2
		c-1.85,0.2-3.13-0.89-3.35-2.58c-0.23-1.74,0.66-3.19,2.43-3.55C78.63,6.38,81.46,5.99,83.49,5.65z"/>
	<path class="st0" d="M0.82,89.22c0.36-2.04,0.79-4.96,1.42-7.85c0.39-1.82,1.91-2.73,3.51-2.41c1.64,0.33,2.65,1.91,2.36,3.81
		c-0.43,2.72-0.88,5.44-1.38,8.15c-0.41,2.18-1.66,3.26-3.42,3.06C1.57,93.78,0.65,92.37,0.82,89.22z"/>
	<path class="st0" d="M107.1,12.46c-2.56-0.33-5.4-0.62-8.22-1.09c-1.81-0.31-2.74-1.73-2.47-3.47c0.28-1.8,1.4-2.77,3.12-2.65
		c2.91,0.2,5.82,0.5,8.71,0.92c1.75,0.26,2.82,1.85,2.63,3.44C110.67,11.3,109.28,12.43,107.1,12.46z"/>
	<path class="st0" d="M54.73,20.87c-0.9-0.9-2.17-1.59-2.42-2.56c-0.25-0.99,0.16-2.92,0.85-3.29c3.02-1.62,6.2-2.96,9.41-4.13
		c1.34-0.49,2.74,0.4,2.98,1.86c0.18,1.08-0.1,2.98-0.77,3.36C61.69,17.85,58.37,19.19,54.73,20.87z"/>
	<path class="st0" d="M135.57,190.27c-1.14-1.08-2.43-1.74-2.7-2.71c-0.28-0.98,0.06-2.82,0.77-3.33c2.59-1.88,5.37-3.53,8.25-4.89
		c0.79-0.38,2.58,0.22,3.15,0.98c0.58,0.78,0.72,2.99,0.2,3.4C142.27,186.03,139.04,187.98,135.57,190.27z"/>
	<path class="st0" d="M0,107.97c-0.05-3.39,0.81-4.95,2.88-5.12c2.08-0.17,3.2,1.47,3.4,4.89c0.12,2.09,0.36,4.17,0.43,6.25
		c0.08,2.14-1.07,3.6-2.77,3.71c-1.61,0.1-2.94-1.11-3.23-3.11C0.42,112.4,0.24,110.18,0,107.97z"/>
	<path class="st0" d="M95.3,199.93c-1.3,0-2.61,0.08-3.9-0.02c-1.78-0.14-3.06-1.49-2.98-3.13c0.09-1.78,1.06-2.99,2.78-3.1
		c2.98-0.18,5.98-0.24,8.97-0.15c1.55,0.05,2.45,1.24,2.55,2.83c0.11,1.7-0.73,2.92-2.36,3.2c-1.66,0.29-3.36,0.3-5.05,0.43
		C95.3,199.98,95.3,199.96,95.3,199.93z"/>
	<path class="st0" d="M7.52,126.16c0.44,0.44,1.6,1.11,2.02,2.12c1.11,2.65,1.94,5.42,2.79,8.18c0.53,1.73-0.18,3.07-1.72,3.83
		c-1.48,0.73-3.26,0.09-3.91-1.6c-1.1-2.87-2.09-5.81-2.9-8.78C3.25,127.88,4.78,126.13,7.52,126.16z"/>
	<path class="st0" d="M29.63,165.97c1.11,0.66,2.01,1.04,2.72,1.66c1.83,1.6,3.59,3.29,5.36,4.96c1.61,1.52,1.86,3.37,0.69,4.78
		c-1.2,1.45-2.92,1.53-4.64,0.02c-2.02-1.78-4.1-3.54-5.83-5.6c-0.7-0.82-0.91-2.5-0.66-3.62
		C27.45,167.33,28.74,166.75,29.63,165.97z"/>
	<path class="st0" d="M163.65,166.88c-0.64,1.13-0.96,2.04-1.55,2.68c-1.74,1.9-3.56,3.73-5.42,5.51c-1.48,1.42-3.34,1.41-4.52,0.12
		c-1.23-1.33-1.15-3.13,0.32-4.66c1.82-1.91,3.6-3.91,5.62-5.57c0.8-0.66,2.34-0.93,3.31-0.62
		C162.3,164.63,162.87,165.95,163.65,166.88z"/>
	<path class="st0" d="M20.64,50.35c-2.65,0.05-4.31-2.51-3.03-4.5c1.74-2.72,3.79-5.26,5.89-7.71c1.01-1.18,2.5-1.06,3.71-0.07
		c1.28,1.05,1.71,2.56,0.77,3.93c-1.8,2.61-3.8,5.09-5.81,7.54C21.76,50.04,20.95,50.19,20.64,50.35z"/>
	<path class="st0" d="M55.22,191.18c-0.55-0.18-1.13-0.3-1.64-0.57c-2.24-1.21-4.48-2.42-6.69-3.71c-1.89-1.1-2.47-2.9-1.56-4.55
		c0.86-1.56,2.55-2.01,4.42-1.03c2.37,1.25,4.7,2.57,7.01,3.92c1.35,0.79,1.98,2.19,1.35,3.6c-0.47,1.05-1.61,1.79-2.44,2.66
		C55.51,191.4,55.36,191.29,55.22,191.18z"/>
	<path class="st0" d="M16.54,147.78c0.41,0.31,1.4,0.77,1.96,1.56c1.54,2.15,2.95,4.41,4.31,6.69c1.09,1.82,0.73,3.59-0.77,4.58
		c-1.45,0.95-3.07,0.63-4.24-1.05c-1.54-2.23-3.05-4.51-4.39-6.88C12.11,150.35,13.54,147.73,16.54,147.78z"/>
	<path class="st0" d="M9.93,71.14c-2.51-0.01-4.13-1.99-3.45-3.9c1.06-2.96,2.33-5.85,3.71-8.67c0.78-1.59,2.47-2,3.86-1.23
		c1.56,0.86,2.09,2.31,1.47,3.94c-1.05,2.75-2.21,5.48-3.54,8.09C11.53,70.25,10.4,70.76,9.93,71.14z"/>
	<path class="st0" d="M180.49,137.28c-2.77,0.01-4.26-1.78-3.74-3.8c0.73-2.85,1.57-5.68,2.51-8.46c0.6-1.78,2.14-2.46,3.76-1.94
		c1.5,0.48,2.41,2.13,1.94,3.87c-0.73,2.72-1.44,5.45-2.45,8.06C182.1,136.07,180.92,136.81,180.49,137.28z"/>
	<path class="st0" d="M45.83,24.83c-0.82,1.15-1.32,2.18-2.1,2.86c-1.83,1.6-3.77,3.06-5.7,4.53c-1.79,1.36-3.52,1.24-4.65-0.26
		c-1.1-1.46-0.76-3.37,0.93-4.74c1.99-1.61,3.94-3.3,6.08-4.67c0.85-0.54,2.28-0.67,3.22-0.32C44.45,22.54,44.98,23.77,45.83,24.83z
		"/>
	<path class="st0" d="M169.83,158.43c-2.71-0.05-4.17-2.35-3.1-4.44c1.4-2.71,2.99-5.33,4.64-7.89c0.91-1.41,2.38-1.65,3.8-0.84
		c1.54,0.87,2.05,2.44,1.27,3.97c-1.42,2.78-3.06,5.45-4.76,8.05C171.24,157.95,170.21,158.2,169.83,158.43z"/>
	<path class="st0" d="M186.73,86.51c-0.02,2.16-0.81,3.34-2.4,3.68c-1.59,0.34-2.97-0.38-3.39-1.99c-0.79-2.98-1.42-6.01-1.89-9.06
		c-0.26-1.65,0.71-2.88,2.28-3.29c1.6-0.41,2.99,0.28,3.43,1.88C185.6,80.76,186.16,83.87,186.73,86.51z"/>
	<path class="st0" d="M114.7,197.57c-2.02-0.15-3.11-0.88-3.46-2.46c-0.35-1.58,0.18-2.99,1.63-3.48c2.95-1,5.97-1.85,9-2.53
		c1.43-0.32,2.54,0.64,3,2.05c0.49,1.5,0.11,3.06-1.33,3.61C120.51,195.91,117.36,196.74,114.7,197.57z"/>
</g>
</svg>
